<svg width="287" height="176" viewBox="0 0 287 176" fill="none" xmlns="http://www.w3.org/2000/svg">
<g filter="url(#filter0_d)">
<rect x="10" y="10" width="267" height="156" rx="4" fill="#83CBFF"/>
<path fill-rule="evenodd" clip-rule="evenodd" d="M124.859 10C124.746 23.3878 128.46 37.1597 141 44C155.58 51.9525 176.624 43.3215 196.682 35.095C214.458 27.8046 231.459 20.8318 242.5 26C266 37 287.5 92 265 108.5C256.685 114.598 249.053 117.008 242.23 119.163C230.59 122.839 221.305 125.771 215 145C212.434 152.827 211.171 159.869 210.749 166H273C275.209 166 277 164.209 277 162V14C277 11.7909 275.209 10 273 10H124.859ZM131.547 166C108.1 159.448 80.2319 145.142 71 125C59.0363 98.8974 34.1922 67.2746 10 55.6716V162C10 164.209 11.7909 166 14 166H131.547Z" fill="#6EB6EB"/>
<rect x="59" y="43" width="70" height="76" rx="5" fill="#4B97CE"/>
<rect x="156" y="40" width="76" height="82" rx="8" fill="#BAE2FF" stroke="#4981A9" stroke-width="6"/>
<path d="M213.594 105.031C212.422 105.03 211.273 105.355 210.276 105.97C209.923 105.213 209.423 104.533 208.805 103.969C208.188 103.405 207.465 102.97 206.678 102.687C205.891 102.404 205.056 102.279 204.221 102.32C203.386 102.361 202.568 102.567 201.812 102.926V94.1562C201.812 92.4738 201.144 90.8602 199.954 89.6705C198.765 88.4809 197.151 87.8125 195.469 87.8125C193.786 87.8125 192.173 88.4809 190.983 89.6705C189.793 90.8602 189.125 92.4738 189.125 94.1562V114.866L187.539 112.12C186.7 110.67 185.323 109.611 183.706 109.174C182.09 108.736 180.366 108.955 178.911 109.783C177.455 110.612 176.387 111.982 175.937 113.595C175.488 115.208 175.695 116.933 176.512 118.395C183.863 133.895 188.761 140.375 200 140.375C205.286 140.369 210.353 138.267 214.091 134.529C217.829 130.791 219.931 125.723 219.937 120.437V111.375C219.936 109.693 219.267 108.081 218.077 106.891C216.888 105.702 215.276 105.033 213.594 105.031Z" fill="#D4DCFF"/>
<path d="M213.594 105.031C212.422 105.03 211.273 105.355 210.276 105.97C209.923 105.213 209.423 104.533 208.805 103.969C208.188 103.405 207.465 102.97 206.678 102.687C205.891 102.404 205.056 102.279 204.221 102.32C203.386 102.361 202.568 102.567 201.812 102.926V94.1562C201.812 92.4738 201.144 90.8602 199.954 89.6705C198.765 88.4809 197.151 87.8125 195.469 87.8125C193.786 87.8125 192.173 88.4809 190.983 89.6705C189.793 90.8602 189.125 92.4738 189.125 94.1562V114.866L187.539 112.12C186.7 110.67 185.323 109.611 183.706 109.174C182.09 108.736 180.366 108.955 178.911 109.783C177.455 110.612 176.387 111.982 175.937 113.595C175.488 115.208 175.695 116.933 176.512 118.395C183.863 133.895 188.761 140.375 200 140.375C205.286 140.369 210.353 138.267 214.091 134.529C217.829 130.791 219.931 125.723 219.937 120.437V111.375C219.936 109.693 219.267 108.081 218.077 106.891C216.888 105.702 215.276 105.033 213.594 105.031ZM216.312 120.437C216.308 124.762 214.587 128.909 211.529 131.967C208.471 135.025 204.325 136.745 200 136.75C195.428 136.75 192.245 135.514 189.357 132.618C186.525 129.778 183.745 125.19 179.759 116.781C179.738 116.737 179.715 116.693 179.691 116.651C179.512 116.342 179.396 116 179.35 115.646C179.303 115.292 179.327 114.932 179.419 114.588C179.511 114.243 179.671 113.919 179.888 113.636C180.106 113.353 180.377 113.115 180.686 112.937C181.31 112.576 182.052 112.478 182.749 112.665C183.094 112.758 183.417 112.917 183.7 113.134C183.984 113.352 184.221 113.623 184.4 113.932L189.368 122.537C189.567 122.882 189.875 123.152 190.244 123.305C190.612 123.458 191.021 123.484 191.406 123.381C191.792 123.278 192.132 123.05 192.375 122.734C192.618 122.417 192.75 122.03 192.75 121.631V94.1562C192.75 93.4352 193.036 92.7437 193.546 92.2338C194.056 91.7239 194.748 91.4375 195.469 91.4375C196.19 91.4375 196.881 91.7239 197.391 92.2338C197.901 92.7437 198.187 93.4352 198.187 94.1562V109.562C198.187 110.043 198.378 110.504 198.718 110.844C199.058 111.184 199.519 111.375 200 111.375C200.481 111.375 200.942 111.184 201.281 110.844C201.621 110.504 201.812 110.043 201.812 109.562V108.656C201.812 107.935 202.099 107.244 202.609 106.734C203.119 106.224 203.81 105.937 204.531 105.937C205.252 105.937 205.944 106.224 206.454 106.734C206.963 107.244 207.25 107.935 207.25 108.656V111.375C207.25 111.856 207.441 112.317 207.781 112.657C208.121 112.997 208.582 113.187 209.062 113.187C209.543 113.187 210.004 112.997 210.344 112.657C210.684 112.317 210.875 111.856 210.875 111.375C210.875 110.654 211.161 109.962 211.671 109.453C212.181 108.943 212.873 108.656 213.594 108.656C214.315 108.656 215.006 108.943 215.516 109.453C216.026 109.962 216.312 110.654 216.312 111.375V120.437Z" fill="#4259BF"/>
</g>
<defs>
<filter id="filter0_d" x="0" y="0" width="287" height="176" filterUnits="userSpaceOnUse" color-interpolation-filters="sRGB">
<feFlood flood-opacity="0" result="BackgroundImageFix"/>
<feColorMatrix in="SourceAlpha" type="matrix" values="0 0 0 0 0 0 0 0 0 0 0 0 0 0 0 0 0 0 127 0" result="hardAlpha"/>
<feOffset/>
<feGaussianBlur stdDeviation="5"/>
<feComposite in2="hardAlpha" operator="out"/>
<feColorMatrix type="matrix" values="0 0 0 0 0.513726 0 0 0 0 0.796078 0 0 0 0 1 0 0 0 1 0"/>
<feBlend mode="normal" in2="BackgroundImageFix" result="effect1_dropShadow"/>
<feBlend mode="normal" in="SourceGraphic" in2="effect1_dropShadow" result="shape"/>
</filter>
</defs>
</svg>
