<svg width="493" height="400" viewBox="0 0 493 400" fill="none" xmlns="http://www.w3.org/2000/svg">
<g clip-path="url(#clip0_378_15079)">
<path d="M332.151 367.342C309.205 367.404 286.281 365.901 263.538 362.845C262.796 362.75 262.043 362.644 261.296 362.533C255.713 361.739 250.128 360.831 244.699 359.835C220.264 355.365 197.222 348.837 176.213 340.43C106.3 312.456 62.3419 318.409 37.7775 328.33C11.1936 339.066 0.974579 356.631 0.874416 356.807L0 356.311C0.101383 356.132 10.4522 338.305 37.3266 327.427C53.0834 321.049 71.3629 318.262 91.6612 319.14C116.999 320.238 145.572 327.086 176.587 339.496C197.534 347.877 220.511 354.388 244.879 358.846C250.296 359.839 255.868 360.745 261.441 361.537C262.185 361.648 262.931 361.753 263.671 361.848C325.318 370.331 384.789 365.215 423.826 359.431C456.001 354.663 476.708 349.089 476.913 349.033L477.177 350.003C476.971 350.059 456.212 355.649 423.973 360.426C393.574 364.955 362.886 367.266 332.151 367.342Z" fill="#3F3D56"/>
<path d="M332.219 78.6912C314.495 78.6915 297.24 77.8617 280.593 76.2032C242.338 72.3922 207.22 64.1694 176.213 51.7632C106.3 23.7887 62.3419 29.742 37.7775 39.6629C11.1936 50.3987 0.974579 67.9642 0.874416 68.1403L0 67.6438C0.101383 67.465 10.4522 49.6384 37.3266 38.7604C53.0837 32.3823 71.3629 29.5937 91.6612 30.4733C116.999 31.5707 145.572 38.4194 176.587 50.8292C246.611 78.8474 324.53 79.9485 377.566 75.9417C435.051 71.5968 476.502 60.4779 476.913 60.3662L477.177 61.3366C476.764 61.4488 435.239 72.5893 377.664 76.9428C362.248 78.1085 347.069 78.6912 332.219 78.6912Z" fill="#3F3D56"/>
<path d="M329.616 4.86285C329.616 4.86285 309.85 -2.19871 297.143 26.0475C284.436 54.2938 264.669 85.3647 264.669 85.3647L275.964 88.1893C275.964 88.1893 278.788 68.4169 285.848 65.5923L283.024 91.0139C283.024 91.0139 367.737 120.673 405.858 88.1893L404.446 78.3031C404.446 78.3031 410.093 79.7154 410.093 88.1893L414.329 83.9524C414.329 83.9524 410.093 75.4785 397.386 64.18C389.046 56.7641 386.18 42.6556 385.195 33.8347C384.457 26.4691 381.511 19.4986 376.743 13.8373C368.299 4.04772 352.912 -6.35719 329.616 4.86285Z" fill="#2F2E41"/>
<path d="M449.584 164.698C449.584 164.698 486.78 196.433 492.251 215.037C497.721 233.641 471.464 235.829 471.464 235.829L414.576 241.301C414.576 241.301 413.482 267.565 403.636 270.848C393.79 274.131 401.637 227.417 401.637 227.417L457.242 211.754L432.08 185.49L449.584 164.698Z" fill="#FBBEBE"/>
<path d="M275.638 197.528L271.262 255.528L247.193 354.018C247.193 354.018 225.313 398.886 243.911 399.98C262.51 401.074 261.416 357.301 261.416 357.301L296.424 264.282L299.706 200.811L275.638 197.528Z" fill="#FBBEBE"/>
<path d="M336.902 95.7544C356.841 95.7544 373.004 79.586 373.004 59.6413C373.004 39.6966 356.841 23.5282 336.902 23.5282C316.963 23.5282 300.8 39.6966 300.8 59.6413C300.8 79.586 316.963 95.7544 336.902 95.7544Z" fill="#FBBEBE"/>
<path d="M320.492 77.1506C320.492 77.1506 333.62 124.207 312.834 136.245C292.048 148.282 365.346 157.037 385.038 120.924C385.038 120.924 350.03 108.886 359.876 77.1506H320.492Z" fill="#FBBEBE"/>
<path d="M295.33 141.717L288.766 139.528C288.766 139.528 275.638 145 275.638 154.849C275.638 164.698 273.45 204.094 273.45 204.094L302.988 207.377L295.33 141.717Z" fill="#102DAC"/>
<path d="M423.899 359.928C383.513 365.913 324.651 370.746 263.607 362.347C263.602 361.744 263.602 361.155 263.602 360.582C263.602 357.167 263.733 353.791 263.994 350.454C267.121 309.356 288.287 275.094 296.477 263.22C296.889 262.616 297.271 262.073 297.613 261.59C298.935 259.735 299.705 258.754 299.705 258.754C299.705 258.754 363.157 257.718 395.976 270.849C397.559 271.513 399.007 272.461 400.25 273.645C412.487 284.94 419.676 321.612 423.899 359.928Z" fill="#2F2E41"/>
<path d="M400.354 126.396C400.354 126.396 414.576 118.735 428.798 135.15L457.242 167.981L435.362 192.056L393.79 166.886L400.354 126.396Z" fill="#102DAC"/>
<path d="M297.89 59.8703C310.671 50.6181 321.016 39.9615 327.86 27.2849C327.86 27.2849 351.314 53.3532 365.647 54.6567C379.981 55.9601 366.95 23.3747 366.95 23.3747L340.89 16.8576L316.133 19.4644L296.587 32.4986L297.89 59.8703Z" fill="#2F2E41"/>
<path d="M379.568 118.735C379.568 118.735 364.258 142.949 318.307 131.389L292.231 138.573L288.766 139.528C288.766 139.528 292.048 205.188 300.8 217.226C309.552 229.263 307.364 235.829 305.176 236.924C302.988 238.018 297.518 235.829 300.8 241.301C304.082 246.773 308.458 243.49 304.082 246.773C299.706 250.056 297.518 262.093 297.518 262.093L400.354 275.225C400.354 275.225 397.072 232.546 405.824 210.66C414.576 188.773 416.764 180.018 416.764 180.018L410.2 125.301L379.568 118.735Z" fill="#102DAC"/>
<path d="M165.843 97.312H25.0723V273.328H165.843V97.312Z" fill="#C3CAE7"/>
<path d="M65.0405 112.148H34.8755V132.264H65.0405V112.148Z" fill="white"/>
<path d="M151.765 151.374H35.127V158.415H151.765V151.374Z" fill="white"/>
<path d="M151.765 169.982H35.127V177.022H151.765V169.982Z" fill="white"/>
<path d="M151.765 188.589H35.127V195.63H151.765V188.589Z" fill="white"/>
<path d="M151.765 207.196H35.127V214.237H151.765V207.196Z" fill="white"/>
<path d="M151.765 225.804H35.127V232.845H151.765V225.804Z" fill="white"/>
<path d="M193.494 273.077C193.487 279.719 191.085 286.136 186.728 291.149C182.371 296.161 176.352 299.432 169.777 300.361C163.202 301.291 156.512 299.815 150.938 296.206C145.363 292.597 141.278 287.097 139.432 280.716C137.587 274.335 138.105 267.503 140.892 261.474C143.68 255.445 148.548 250.625 154.603 247.899C160.658 245.172 167.494 244.724 173.853 246.635C180.213 248.546 185.669 252.689 189.22 258.301C192.013 262.723 193.494 267.847 193.494 273.077Z" fill="#102DAC"/>
<path d="M189.22 258.302L162.001 285.524C160.291 282.874 150.76 270.562 150.76 270.562C151.981 269.327 153.285 268.177 154.661 267.117L162.564 277.658L186.033 254.183C187.223 255.452 188.29 256.831 189.22 258.302Z" fill="white"/>
</g>
<defs>
<clipPath id="clip0_378_15079">
<rect width="493" height="400" fill="white"/>
</clipPath>
</defs>
</svg>
