<svg width="287" height="176" viewBox="0 0 287 176" fill="none" xmlns="http://www.w3.org/2000/svg">
<g filter="url(#filter0_d)">
<rect x="10" y="10" width="267" height="156" rx="4" fill="#FF8383"/>
<path d="M29.9617 65.1013C28.9685 65.3905 27.9206 65.6006 26.818 65.7316L26.289 61.9564C27.4752 61.8222 28.4772 61.636 29.2951 61.3979C30.853 60.9442 32.0029 60.2502 32.7448 59.3159C33.4867 58.3816 33.7017 57.3789 33.3898 56.3078C33.1913 55.6263 32.8406 55.1475 32.3377 54.8714C31.8348 54.5954 31.2329 54.5594 30.5318 54.7636C30.045 54.9054 29.5378 55.1587 29.0103 55.5235L27.6095 52.8895C28.4591 52.3252 29.1673 51.6014 29.7339 50.7181C30.3144 49.8097 30.5054 49.0147 30.3069 48.3332C30.1821 47.9047 29.9174 47.6122 29.5126 47.4554C29.1216 47.2735 28.6535 47.262 28.1082 47.4208C27.563 47.5795 27.0436 47.8998 26.5502 48.3815C26.051 48.8437 25.6277 49.4212 25.2802 50.1139L22.0439 48.1411C22.6293 47.1045 23.3825 46.2092 24.3037 45.455C25.2386 44.6758 26.2805 44.1188 27.4295 43.7842C28.5005 43.4723 29.5017 43.392 30.433 43.5433C31.3586 43.6751 32.1446 44.0166 32.791 44.5677C33.4317 45.0994 33.874 45.7839 34.1178 46.6213C34.5262 48.0234 34.2732 49.5124 33.3591 51.0884C34.3991 51.2502 35.2719 51.6721 35.9774 52.3538C36.6968 53.0105 37.2067 53.8548 37.5073 54.8869C37.9099 56.2695 37.8668 57.6447 37.3778 59.0123C36.9083 60.3743 36.0272 61.5921 34.7343 62.6657C33.4415 63.7393 31.8506 64.5512 29.9617 65.1013ZM44.1674 60.9643C43.1743 61.2535 42.1264 61.4636 41.0238 61.5946L40.4947 57.8194C41.6809 57.6852 42.6829 57.4991 43.5008 57.2609C45.0587 56.8072 46.2086 56.1132 46.9505 55.1789C47.6924 54.2446 47.9074 53.2419 47.5955 52.1709C47.397 51.4893 47.0463 51.0105 46.5434 50.7344C46.0406 50.4584 45.4386 50.4224 44.7375 50.6266C44.2507 50.7684 43.7435 51.0217 43.216 51.3866L41.8152 48.7525C42.6649 48.1882 43.373 47.4644 43.9397 46.5811C44.5201 45.6727 44.7111 44.8777 44.5126 44.1962C44.3879 43.7677 44.1231 43.4752 43.7183 43.3184C43.3273 43.1365 42.8592 43.125 42.314 43.2838C41.7687 43.4426 41.2494 43.7628 40.7559 44.2445C40.2568 44.7067 39.8334 45.2842 39.4859 45.9769L36.2496 44.0041C36.835 42.9675 37.5883 42.0722 38.5094 41.318C39.4443 40.5388 40.4863 39.9818 41.6352 39.6473C42.7062 39.3353 43.7074 39.255 44.6387 39.4063C45.5644 39.5381 46.3504 39.8796 46.9967 40.4307C47.6374 40.9624 48.0797 41.6469 48.3236 42.4843C48.7319 43.8864 48.479 45.3754 47.5648 46.9514C48.6048 47.1132 49.4776 47.5351 50.1831 48.2169C50.9025 48.8735 51.4125 49.7179 51.713 50.7499C52.1157 52.1326 52.0725 53.5077 51.5835 54.8753C51.114 56.2373 50.2329 57.4551 48.94 58.5287C47.6472 59.6024 46.0563 60.4142 44.1674 60.9643ZM58.9843 56.2057L66.4417 32.74L68.4668 32.4037L61.0179 55.8987L58.9843 56.2057ZM57.6556 43.9177C56.9156 44.1332 56.1732 44.1592 55.4285 43.9959C54.7033 43.8268 54.0678 43.4943 53.522 42.9984C52.9957 42.4968 52.6276 41.8857 52.4178 41.1652C52.2023 40.4252 52.1819 39.7023 52.3566 38.9966C52.5508 38.2852 52.9084 37.6635 53.4295 37.1315C53.9506 36.5995 54.5908 36.2229 55.3503 36.0017C56.0903 35.7862 56.8229 35.763 57.5481 35.932C58.2734 36.1011 58.8991 36.4364 59.4255 36.938C59.9713 37.4339 60.3519 38.0519 60.5674 38.7919C60.7772 39.5124 60.7851 40.2284 60.5909 40.9398C60.4161 41.6456 60.0683 42.2644 59.5472 42.7964C59.0261 43.3284 58.3956 43.7022 57.6556 43.9177ZM57.0771 41.9314C57.6029 41.7783 57.9746 41.4588 58.1923 40.9729C58.4294 40.4813 58.4713 39.9727 58.3182 39.4469C58.1651 38.9211 57.8566 38.5145 57.3926 38.2271C56.9425 37.9146 56.4545 37.8349 55.9288 37.988C55.3835 38.1468 54.9952 38.4817 54.7637 38.9927C54.5461 39.4786 54.5138 39.9844 54.667 40.5102C54.8201 41.036 55.1189 41.4454 55.5633 41.7385C56.0273 42.0259 56.5319 42.0902 57.0771 41.9314ZM72.1385 52.6284C71.3985 52.8439 70.6659 52.8672 69.9407 52.6981C69.2349 52.5234 68.6091 52.1881 68.0633 51.6922C67.537 51.1906 67.1661 50.5698 66.9506 49.8298C66.7408 49.1092 66.7232 48.3961 66.8979 47.6904C67.0865 46.9595 67.4315 46.3308 67.9331 45.8045C68.4542 45.2725 69.0847 44.8988 69.8247 44.6833C70.5647 44.4678 71.2973 44.4445 72.0226 44.6136C72.7478 44.7826 73.3764 45.1277 73.9084 45.6488C74.4542 46.1447 74.832 46.7529 75.0418 47.4734C75.3708 48.6029 75.2563 49.6608 74.6986 50.6471C74.1408 51.6334 73.2874 52.2939 72.1385 52.6284ZM71.5223 50.6214C72.0676 50.4627 72.449 50.1403 72.6667 49.6544C72.9038 49.1629 72.9458 48.6542 72.7926 48.1284C72.6395 47.6027 72.331 47.1961 71.8671 46.9087C71.4169 46.5962 70.9192 46.5193 70.374 46.6781C69.8482 46.8312 69.4696 47.1633 69.2381 47.6743C69.0205 48.1602 68.9883 48.666 69.1414 49.1918C69.2945 49.7176 69.5933 50.127 70.0378 50.42C70.5017 50.7074 70.9966 50.7746 71.5223 50.6214Z" fill="#DE6666"/>
<path d="M235.647 36.5717C234.572 36.4635 233.778 36.0269 233.266 35.2618C232.765 34.4875 232.596 33.2865 232.76 31.6587C232.947 29.7955 233.48 28.3497 234.36 27.3214C235.24 26.2827 236.432 25.8392 237.937 25.9906C238.428 26.04 238.914 26.1458 239.394 26.3078L239.138 28.0814C238.613 27.9562 238.197 27.8781 237.89 27.8472C237.173 27.7751 236.597 27.9032 236.16 28.2316C235.724 28.56 235.397 29.1423 235.178 29.9786C235.898 29.8132 236.544 29.7594 237.118 29.817C238.019 29.9077 238.682 30.2536 239.107 30.8549C239.543 31.4571 239.711 32.2548 239.611 33.2478C239.494 34.4149 239.075 35.2879 238.355 35.8669C237.645 36.447 236.742 36.6819 235.647 36.5717ZM236.043 34.7967C236.442 34.8368 236.769 34.7249 237.023 34.461C237.287 34.198 237.448 33.7799 237.506 33.2066C237.612 32.1521 237.276 31.5858 236.498 31.5075C236.088 31.4663 235.548 31.5412 234.877 31.7322C234.82 32.0987 234.784 32.3485 234.771 32.4816C234.705 33.1368 234.78 33.6769 234.996 34.1019C235.213 34.5167 235.561 34.7482 236.043 34.7967ZM241.184 36.7256L245.423 28.8224L241.2 28.3975L241.538 26.5856L247.711 27.2068L247.547 28.8345L243.395 37.4134L241.184 36.7256ZM249.27 37.7099L257.234 28.0875L258.251 28.3138L250.285 37.9516L249.27 37.7099ZM250.978 31.6771C250.589 31.638 250.235 31.5093 249.916 31.291C249.607 31.0738 249.371 30.7967 249.209 30.4598C249.056 30.1239 248.999 29.7665 249.037 29.3877C249.076 28.9987 249.204 28.6548 249.42 28.356C249.647 28.0582 249.933 27.8337 250.279 27.6823C250.625 27.531 250.998 27.4755 251.397 27.5156C251.786 27.5548 252.135 27.683 252.444 27.9002C252.753 28.1175 252.984 28.394 253.136 28.7299C253.299 29.0669 253.361 29.4298 253.322 29.8188C253.283 30.1976 253.151 30.5359 252.925 30.8337C252.709 31.1325 252.427 31.3576 252.081 31.5089C251.735 31.6602 251.368 31.7163 250.978 31.6771ZM251.084 30.6329C251.36 30.6607 251.595 30.581 251.79 30.3938C251.995 30.2076 252.111 29.9763 252.139 29.6999C252.167 29.4235 252.099 29.1736 251.935 28.9503C251.783 28.7178 251.569 28.5877 251.292 28.5599C251.006 28.531 250.759 28.6148 250.553 28.8113C250.359 28.9985 250.247 29.2303 250.22 29.5067C250.192 29.7831 250.255 30.0325 250.408 30.2547C250.572 30.478 250.797 30.6041 251.084 30.6329ZM256.137 38.5249C255.748 38.4858 255.399 38.3576 255.09 38.1404C254.791 37.9242 254.561 37.6476 254.398 37.3107C254.246 36.9748 254.189 36.6123 254.228 36.2233C254.266 35.8445 254.394 35.5057 254.61 35.2069C254.837 34.8989 255.119 34.6687 255.455 34.5163C255.801 34.365 256.169 34.309 256.558 34.3481C256.947 34.3872 257.296 34.5154 257.605 34.7327C257.914 34.9499 258.144 35.2316 258.295 35.5777C258.458 35.9147 258.52 36.2725 258.482 36.6513C258.422 37.2451 258.167 37.721 257.718 38.079C257.268 38.4371 256.741 38.5857 256.137 38.5249ZM256.229 37.4638C256.515 37.4927 256.756 37.4135 256.95 37.2262C257.155 37.04 257.272 36.8087 257.3 36.5323C257.327 36.2559 257.259 36.0061 257.096 35.7828C256.943 35.5503 256.724 35.4196 256.437 35.3908C256.161 35.363 255.92 35.4473 255.714 35.6437C255.519 35.8309 255.408 36.0628 255.38 36.3392C255.352 36.6156 255.415 36.8649 255.568 37.0872C255.732 37.3105 255.952 37.436 256.229 37.4638Z" fill="#DE6666"/>
<path d="M204.741 98.7999C205.36 96.4329 205.807 94.6412 206.082 93.4248C206.363 92.1879 206.522 91.1719 206.558 90.3768C206.588 89.5684 206.469 88.9171 206.203 88.4231C205.958 87.9692 205.624 87.6843 205.2 87.5684C204.789 87.4453 204.363 87.5025 203.922 87.7399C203.081 88.1933 202.577 89.1113 202.409 90.4941L199.558 90.1439C199.69 88.9184 200.031 87.873 200.581 87.0079C201.145 86.1355 201.888 85.451 202.809 84.9545C203.583 84.5371 204.36 84.3165 205.14 84.2925C205.912 84.2552 206.627 84.4301 207.283 84.8171C207.946 85.1835 208.483 85.7472 208.893 86.5083C209.461 87.563 209.673 88.8357 209.529 90.3263C209.398 91.8097 208.951 93.8084 208.186 96.3223L212.853 93.8073L214.025 96.5095L205.874 100.903L204.741 98.7999ZM215.086 93.2236C215.706 90.8565 216.153 89.0648 216.428 87.8485C216.709 86.6115 216.868 85.5955 216.904 84.8004C216.934 83.992 216.815 83.3407 216.549 82.8468C216.304 82.3928 215.97 82.1079 215.546 81.992C215.135 81.8689 214.709 81.9261 214.268 82.1635C213.427 82.6169 212.923 83.535 212.755 84.9177L209.904 84.5676C210.036 83.342 210.377 82.2966 210.927 81.4315C211.491 80.5591 212.233 79.8747 213.155 79.3781C213.929 78.9607 214.706 78.7401 215.486 78.7161C216.258 78.6788 216.973 78.8537 217.629 79.2407C218.292 79.6071 218.828 80.1709 219.239 80.9319C219.807 81.9866 220.019 83.2593 219.875 84.7499C219.744 86.2333 219.297 88.232 218.532 90.746L223.199 88.2309L224.371 90.9331L216.22 95.3264L215.086 93.2236ZM228.299 88.8417L230.077 70.5154L231.505 69.9524L229.738 88.2987L228.299 88.8417ZM225.403 80.0646C224.896 80.338 224.357 80.4733 223.787 80.4705C223.23 80.4605 222.713 80.3169 222.236 80.0397C221.773 79.7553 221.408 79.3662 221.142 78.8722C220.869 78.3648 220.74 77.8394 220.758 77.296C220.788 76.7454 220.952 76.2348 221.25 75.7642C221.548 75.2936 221.957 74.918 222.478 74.6373C222.985 74.3639 223.517 74.2321 224.074 74.2422C224.631 74.2522 225.141 74.3994 225.604 74.6838C226.081 74.9609 226.456 75.3532 226.729 75.8605C226.996 76.3545 227.114 76.8768 227.083 77.4275C227.066 77.9709 226.908 78.4779 226.611 78.9485C226.313 79.4191 225.91 79.7911 225.403 80.0646ZM224.669 78.7028C225.029 78.5085 225.251 78.2166 225.334 77.8273C225.431 77.4307 225.382 77.0522 225.187 76.6917C224.993 76.3312 224.704 76.0822 224.32 75.9447C223.942 75.7867 223.572 75.8048 223.212 75.9991C222.838 76.2006 222.606 76.5063 222.517 76.9162C222.434 77.3056 222.49 77.6805 222.684 78.041C222.878 78.4015 223.161 78.6541 223.532 78.7988C223.916 78.9363 224.295 78.9043 224.669 78.7028ZM237.357 84.1661C236.85 84.4395 236.318 84.5712 235.761 84.5612C235.218 84.5439 234.708 84.3967 234.231 84.1196C233.767 83.8352 233.399 83.4394 233.125 82.932C232.859 82.438 232.735 81.9193 232.752 81.3759C232.775 80.8119 232.929 80.2983 233.214 79.8348C233.511 79.3642 233.914 78.9922 234.421 78.7188C234.928 78.4453 235.461 78.3136 236.017 78.3236C236.574 78.3337 237.088 78.4876 237.558 78.7853C238.035 79.0624 238.407 79.448 238.673 79.942C239.09 80.7164 239.172 81.5078 238.919 82.3164C238.665 83.1249 238.145 83.7415 237.357 84.1661ZM236.592 82.795C236.966 82.5935 237.195 82.2981 237.278 81.9087C237.374 81.5122 237.325 81.1336 237.131 80.7732C236.937 80.4127 236.647 80.1637 236.263 80.0262C235.885 79.8682 235.509 79.8899 235.135 80.0914C234.775 80.2857 234.55 80.5878 234.461 80.9977C234.378 81.387 234.433 81.762 234.627 82.1225C234.822 82.4829 235.104 82.7355 235.475 82.8802C235.86 83.0177 236.232 82.9893 236.592 82.795Z" fill="#DE6666"/>
<path d="M159.809 155.413C159.036 155.386 158.242 155.291 157.428 155.126L157.935 152.321C158.809 152.503 159.564 152.605 160.201 152.627C161.414 152.668 162.393 152.444 163.138 151.954C163.883 151.464 164.27 150.802 164.299 149.968C164.318 149.438 164.18 149.016 163.888 148.702C163.595 148.388 163.176 148.222 162.63 148.203C162.251 148.19 161.832 148.252 161.372 148.387L160.993 146.189C161.728 145.987 162.4 145.638 163.009 145.143C163.634 144.634 163.955 144.114 163.974 143.583C163.985 143.25 163.866 142.98 163.615 142.774C163.379 142.553 163.05 142.436 162.625 142.421C162.201 142.406 161.757 142.512 161.294 142.739C160.831 142.951 160.396 143.262 159.987 143.673L158.149 141.515C158.807 140.916 159.552 140.456 160.382 140.135C161.229 139.8 162.099 139.648 162.993 139.679C163.827 139.708 164.557 139.885 165.183 140.21C165.81 140.52 166.288 140.946 166.618 141.489C166.949 142.016 167.103 142.606 167.081 143.258C167.043 144.349 166.515 145.348 165.498 146.254C166.199 146.612 166.72 147.115 167.062 147.765C167.419 148.399 167.584 149.118 167.556 149.921C167.519 150.998 167.167 151.964 166.5 152.822C165.848 153.679 164.937 154.338 163.768 154.799C162.599 155.259 161.279 155.464 159.809 155.413ZM169.299 152.645L171.913 152.736L172.2 144.459L169.576 143.299L169.615 142.185L173.778 140.28L175.529 140.34L175.097 152.846L177.62 152.933L177.298 155.676L168.976 155.388L169.299 152.645ZM181.082 155.83L191.865 140.905L193.382 141.139L182.599 156.087L181.082 155.83ZM183.011 146.791C182.435 146.771 181.902 146.616 181.411 146.326C180.935 146.036 180.562 145.651 180.29 145.171C180.033 144.692 179.915 144.172 179.934 143.611C179.954 143.035 180.108 142.517 180.398 142.056C180.702 141.597 181.101 141.238 181.596 140.982C182.09 140.726 182.633 140.609 183.224 140.629C183.8 140.649 184.326 140.804 184.802 141.093C185.277 141.383 185.643 141.767 185.9 142.247C186.172 142.727 186.298 143.254 186.278 143.83C186.258 144.391 186.096 144.902 185.792 145.362C185.503 145.822 185.111 146.18 184.617 146.436C184.122 146.693 183.587 146.811 183.011 146.791ZM183.065 145.245C183.474 145.259 183.813 145.119 184.081 144.824C184.364 144.531 184.513 144.179 184.527 143.77C184.541 143.361 184.417 143 184.155 142.687C183.908 142.36 183.58 142.189 183.171 142.175C182.746 142.16 182.392 142.308 182.108 142.616C181.84 142.911 181.699 143.262 181.685 143.672C181.671 144.081 181.787 144.442 182.034 144.754C182.297 145.066 182.64 145.23 183.065 145.245ZM191.262 156.364C190.686 156.344 190.16 156.189 189.685 155.899C189.224 155.61 188.858 155.226 188.586 154.746C188.33 154.267 188.212 153.739 188.231 153.163C188.251 152.602 188.405 152.092 188.694 151.631C188.999 151.156 189.391 150.79 189.87 150.534C190.365 150.277 190.9 150.159 191.476 150.179C192.052 150.199 192.578 150.354 193.054 150.644C193.529 150.933 193.895 151.325 194.151 151.82C194.423 152.3 194.549 152.82 194.53 153.381C194.499 154.26 194.171 154.985 193.544 155.555C192.917 156.125 192.157 156.395 191.262 156.364ZM191.294 154.794C191.718 154.809 192.064 154.669 192.333 154.375C192.616 154.081 192.765 153.73 192.779 153.32C192.793 152.911 192.669 152.55 192.407 152.237C192.16 151.91 191.824 151.739 191.4 151.725C190.991 151.71 190.644 151.858 190.36 152.167C190.092 152.461 189.951 152.813 189.937 153.222C189.923 153.631 190.039 153.992 190.286 154.304C190.549 154.617 190.885 154.78 191.294 154.794Z" fill="#DE6666"/>
<path d="M50.737 142.517C51.8671 141.49 52.7111 140.705 53.269 140.162C53.8372 139.611 54.2662 139.134 54.5562 138.73C54.8469 138.317 55.0067 137.936 55.0356 137.587C55.0622 137.267 54.9843 137.004 54.8018 136.799C54.6288 136.594 54.3866 136.479 54.0753 136.453C53.481 136.404 52.9045 136.712 52.3458 137.379L50.9739 136.225C51.4603 135.629 51.9947 135.198 52.5771 134.933C53.169 134.668 53.7904 134.563 54.4413 134.617C54.9885 134.663 55.4701 134.812 55.886 135.065C56.3028 135.308 56.617 135.643 56.8286 136.069C57.0505 136.486 57.1391 136.964 57.0945 137.502C57.0327 138.247 56.7103 138.985 56.1273 139.715C55.5537 140.447 54.639 141.34 53.3831 142.394L56.6803 142.668L56.3732 144.48L50.6138 144.003L50.737 142.517ZM58.0474 143.123C59.1775 142.096 60.0215 141.311 60.5794 140.769C61.1476 140.217 61.5766 139.74 61.8666 139.336C62.1573 138.924 62.3171 138.543 62.346 138.194C62.3726 137.873 62.2947 137.61 62.1122 137.405C61.9392 137.201 61.697 137.085 61.3857 137.06C60.7914 137.01 60.2149 137.319 59.6562 137.985L58.2843 136.831C58.7707 136.235 59.3051 135.804 59.8875 135.539C60.4794 135.275 61.1008 135.169 61.7517 135.223C62.2989 135.269 62.7805 135.418 63.1964 135.671C63.6132 135.915 63.9274 136.249 64.139 136.675C64.3609 137.093 64.4495 137.57 64.4049 138.108C64.3431 138.853 64.0207 139.591 63.4377 140.322C62.8641 141.053 61.9494 141.946 60.6935 143.001L63.9907 143.274L63.6836 145.087L57.9242 144.609L58.0474 143.123ZM66.4504 145.33L73.6211 136.35L74.5599 136.542L67.388 145.536L66.4504 145.33ZM67.9246 139.753C67.5661 139.724 67.2382 139.611 66.941 139.415C66.6532 139.221 66.4318 138.969 66.2768 138.662C66.1312 138.356 66.0729 138.028 66.1019 137.679C66.1316 137.32 66.2435 137.002 66.4376 136.723C66.6411 136.446 66.9008 136.235 67.2168 136.09C67.5327 135.945 67.8747 135.888 68.2426 135.919C68.6011 135.948 68.9242 136.061 69.212 136.255C69.4999 136.45 69.7165 136.701 69.8621 137.007C70.0171 137.315 70.0797 137.648 70.05 138.006C70.021 138.355 69.9048 138.669 69.7013 138.946C69.5072 139.224 69.2522 139.436 68.9363 139.581C68.6203 139.726 68.2831 139.783 67.9246 139.753ZM68.0044 138.791C68.2591 138.812 68.4745 138.735 68.6505 138.56C68.8359 138.385 68.9392 138.171 68.9604 137.916C68.9815 137.661 68.915 137.432 68.7608 137.23C68.6169 137.018 68.4175 136.902 68.1628 136.881C67.8987 136.859 67.6735 136.94 67.4872 137.124C67.3112 137.299 67.2126 137.514 67.1915 137.769C67.1704 138.024 67.2322 138.252 67.3769 138.454C67.5311 138.657 67.7402 138.769 68.0044 138.791ZM72.7806 145.969C72.4221 145.94 72.099 145.827 71.8112 145.633C71.5328 145.439 71.3161 145.188 71.1612 144.88C71.0156 144.574 70.9577 144.241 70.9874 143.883C71.0164 143.534 71.1279 143.22 71.3219 142.942C71.5262 142.655 71.7816 142.439 72.0882 142.293C72.4041 142.148 72.7414 142.091 73.0999 142.12C73.4583 142.15 73.7815 142.262 74.0693 142.457C74.3571 142.652 74.5734 142.908 74.7182 143.223C74.8732 143.531 74.9362 143.859 74.9072 144.208C74.8618 144.755 74.6352 145.197 74.2274 145.534C73.8195 145.87 73.3372 146.016 72.7806 145.969ZM72.8475 144.992C73.1116 145.014 73.3317 144.937 73.5077 144.762C73.6932 144.587 73.7965 144.372 73.8176 144.118C73.8387 143.863 73.7722 143.634 73.618 143.431C73.4741 143.22 73.2701 143.103 73.0059 143.081C72.7512 143.06 72.5307 143.142 72.3445 143.326C72.1684 143.501 72.0699 143.716 72.0487 143.971C72.0276 144.226 72.0894 144.454 72.2341 144.656C72.3883 144.859 72.5927 144.971 72.8475 144.992Z" fill="#DE6666"/>
<path d="M18.6662 102.233C18.2915 102.202 17.9086 102.137 17.5173 102.038L17.829 100.688C18.249 100.796 18.6133 100.864 18.9219 100.889C19.5096 100.938 19.9871 100.844 20.3544 100.609C20.7295 100.366 20.9351 100.028 20.9711 99.5945C20.9966 99.2859 20.9277 99.0472 20.7642 98.8783C20.6086 98.7026 20.3655 98.6011 20.0349 98.5737C19.6969 98.5457 19.3676 98.5923 19.0468 98.7137L18.4672 98.2106L18.969 94.7016L22.7159 95.0123L22.5199 96.3054L20.1395 96.108L19.9701 97.3478C20.0975 97.3287 20.2603 97.3274 20.4587 97.3439C21.1419 97.4006 21.6731 97.6406 22.0522 98.0641C22.4393 98.4809 22.6051 99.0235 22.5497 99.6921C22.5046 100.236 22.3098 100.712 21.9653 101.119C21.6281 101.528 21.174 101.83 20.6029 102.027C20.0317 102.224 19.3862 102.292 18.6662 102.233ZM26.6631 101.065L23.4562 100.799L23.4402 99.655L27.1236 95.3779L28.5783 95.4985L28.2091 99.9506L29.0576 100.021L28.845 101.246L28.1067 101.185L27.9696 102.838L26.526 102.718L26.6631 101.065ZM26.7654 99.8309L26.9756 97.2963L25.0463 99.6883L26.7654 99.8309ZM30.7371 103.079L36.3214 96.0852L37.0524 96.2346L31.4673 103.239L30.7371 103.079ZM31.8852 98.7354C31.606 98.7122 31.3507 98.6245 31.1192 98.4721C30.895 98.3204 30.7226 98.1249 30.6019 97.8855C30.4886 97.6468 30.4432 97.3915 30.4657 97.1197C30.4889 96.8405 30.576 96.5926 30.7271 96.3758C30.8856 96.1596 31.0879 95.9951 31.334 95.8824C31.58 95.7697 31.8463 95.7252 32.1328 95.7489C32.412 95.7721 32.6637 95.8595 32.8878 96.0113C33.1119 96.163 33.2807 96.3582 33.394 96.5969C33.5147 96.8363 33.5635 97.0955 33.5403 97.3747C33.5178 97.6465 33.4273 97.8905 33.2688 98.1067C33.1177 98.3235 32.9191 98.4882 32.673 98.601C32.4269 98.7137 32.1643 98.7585 31.8852 98.7354ZM31.9473 97.986C32.1457 98.0025 32.3134 97.9424 32.4505 97.8058C32.5949 97.6699 32.6753 97.5027 32.6918 97.3043C32.7082 97.106 32.6564 96.9278 32.5364 96.7699C32.4243 96.6053 32.269 96.5147 32.0707 96.4983C31.865 96.4812 31.6896 96.5444 31.5446 96.6877C31.4075 96.8243 31.3307 96.9917 31.3143 97.1901C31.2978 97.3884 31.3459 97.5663 31.4587 97.7236C31.5787 97.8815 31.7416 97.9689 31.9473 97.986ZM35.6668 103.576C35.3877 103.553 35.136 103.466 34.9119 103.314C34.6951 103.163 34.5264 102.967 34.4057 102.728C34.2923 102.489 34.2472 102.23 34.2704 101.951C34.2929 101.679 34.3797 101.435 34.5309 101.218C34.69 100.995 34.8889 100.826 35.1276 100.713C35.3736 100.6 35.6363 100.556 35.9154 100.579C36.1946 100.602 36.4463 100.689 36.6704 100.841C36.8945 100.993 37.0629 101.192 37.1757 101.438C37.2964 101.677 37.3455 101.933 37.3229 102.204C37.2876 102.631 37.1111 102.975 36.7935 103.237C36.4758 103.499 36.1003 103.612 35.6668 103.576ZM35.7189 102.815C35.9246 102.832 36.096 102.772 36.2331 102.636C36.3775 102.5 36.4579 102.332 36.4744 102.134C36.4908 101.936 36.439 101.758 36.319 101.6C36.2069 101.435 36.048 101.344 35.8423 101.327C35.6439 101.311 35.4722 101.374 35.3272 101.517C35.1901 101.654 35.1133 101.821 35.0969 102.02C35.0804 102.218 35.1285 102.396 35.2413 102.553C35.3613 102.711 35.5205 102.798 35.7189 102.815Z" fill="#DE6666"/>
<circle cx="141" cy="88" r="61" fill="#DE6666"/>
<path d="M202 88C202 98.6192 199.228 109.055 193.958 118.274C188.687 127.493 181.102 135.177 171.951 140.565C162.8 145.953 152.401 148.859 141.783 148.995C131.165 149.131 120.695 146.493 111.408 141.342C102.122 136.19 94.342 128.704 88.8369 119.623C83.3318 110.542 80.2927 100.181 80.0201 89.5657C79.7475 78.9499 82.251 68.4469 87.2829 59.0955C92.3147 49.7441 99.7007 41.8683 108.71 36.2471L141 88H202Z" fill="#FFBABA"/>
<circle cx="141" cy="88" r="40.9452" fill="#FF8383"/>
<rect x="85" y="91.8412" width="146.257" height="30.5159" rx="15.258" fill="#CD6363"/>
<rect x="35" y="94.8412" width="197.803" height="24.5159" rx="12.258" stroke="#703C3C" stroke-width="6"/>
<rect x="32" y="91.8412" width="146.257" height="30.5159" rx="15.258" fill="#703C3C"/>
<path fill-rule="evenodd" clip-rule="evenodd" d="M79.3846 91.8412H60.898L39.1509 120.028C41.4997 121.504 44.2791 122.357 47.2578 122.357H55.8401L79.3846 91.8412ZM92.8401 122.357H74.3535L97.898 91.8412H116.385L92.8401 122.357ZM129.84 122.357H111.354L134.898 91.8412H153.385L129.84 122.357Z" fill="#844242"/>
<circle cx="173.393" cy="106.5" r="16" fill="#D17676" stroke="#A85050" stroke-width="5"/>
<path d="M113.989 81.7191C112.551 81.7191 111.112 81.5543 109.674 81.2247L109.899 76.0112C111.487 76.221 112.715 76.3258 113.584 76.3258C115.682 76.3258 117.315 75.7865 118.483 74.7078C119.652 73.6292 120.431 71.8464 120.82 69.3595C118.783 70.0486 116.925 70.3932 115.247 70.3932C112.611 70.3932 110.573 69.5842 109.135 67.9662C107.727 66.3483 107.022 64.0861 107.022 61.1797C107.022 57.764 107.966 55.1123 109.854 53.2246C111.772 51.337 114.333 50.3931 117.539 50.3931C120.685 50.3931 123.097 51.4418 124.775 53.5392C126.483 55.6066 127.337 59.0224 127.337 63.7865C127.337 69.2397 126.214 73.5992 123.966 76.8652C121.719 80.1011 118.393 81.7191 113.989 81.7191ZM116.551 65.3146C117.749 65.3146 119.292 64.94 121.18 64.191C121.24 63.1123 121.27 62.3782 121.27 61.9887C121.27 60.0711 120.895 58.543 120.146 57.4044C119.397 56.2359 118.318 55.6516 116.91 55.6516C115.742 55.6516 114.813 56.0711 114.124 56.91C113.464 57.749 113.135 59.0074 113.135 60.6853C113.135 63.7715 114.273 65.3146 116.551 65.3146ZM138.699 81.7191C137.261 81.7191 135.823 81.5543 134.385 81.2247L134.609 76.0112C136.197 76.221 137.426 76.3258 138.295 76.3258C140.392 76.3258 142.025 75.7865 143.194 74.7078C144.362 73.6292 145.141 71.8464 145.531 69.3595C143.493 70.0486 141.636 70.3932 139.958 70.3932C137.321 70.3932 135.283 69.5842 133.845 67.9662C132.437 66.3483 131.733 64.0861 131.733 61.1797C131.733 57.764 132.677 55.1123 134.564 53.2246C136.482 51.337 139.044 50.3931 142.25 50.3931C145.396 50.3931 147.808 51.4418 149.486 53.5392C151.194 55.6066 152.048 59.0224 152.048 63.7865C152.048 69.2397 150.924 73.5992 148.677 76.8652C146.43 80.1011 143.104 81.7191 138.699 81.7191ZM141.261 65.3146C142.46 65.3146 144.003 64.94 145.89 64.191C145.95 63.1123 145.98 62.3782 145.98 61.9887C145.98 60.0711 145.606 58.543 144.857 57.4044C144.107 56.2359 143.029 55.6516 141.621 55.6516C140.452 55.6516 139.523 56.0711 138.834 56.91C138.175 57.749 137.845 59.0074 137.845 60.6853C137.845 63.7715 138.984 65.3146 141.261 65.3146ZM160.092 81.0449L180.362 50.8426L183.373 51.2021L163.103 81.4494L160.092 81.0449ZM163.283 63.0674C162.145 63.0674 161.081 62.7977 160.092 62.2584C159.133 61.719 158.369 60.9849 157.8 60.0561C157.261 59.1273 156.991 58.1085 156.991 56.9999C156.991 55.8613 157.261 54.8276 157.8 53.8988C158.369 52.9699 159.133 52.2359 160.092 51.6965C161.051 51.1572 162.115 50.8875 163.283 50.8875C164.422 50.8875 165.47 51.1572 166.429 51.6965C167.388 52.2359 168.137 52.9699 168.676 53.8988C169.246 54.8276 169.53 55.8613 169.53 56.9999C169.53 58.1085 169.246 59.1273 168.676 60.0561C168.137 60.9849 167.388 61.719 166.429 62.2584C165.47 62.7977 164.422 63.0674 163.283 63.0674ZM163.283 60.0112C164.092 60.0112 164.751 59.7115 165.261 59.1123C165.8 58.513 166.07 57.8089 166.07 56.9999C166.07 56.1909 165.8 55.4868 165.261 54.8875C164.751 54.2583 164.092 53.9437 163.283 53.9437C162.444 53.9437 161.755 54.2583 161.216 54.8875C160.706 55.4868 160.452 56.1909 160.452 56.9999C160.452 57.8089 160.706 58.513 161.216 59.1123C161.755 59.7115 162.444 60.0112 163.283 60.0112ZM180.227 81.4045C179.089 81.4045 178.04 81.1348 177.081 80.5955C176.152 80.0562 175.403 79.3221 174.834 78.3932C174.294 77.4644 174.025 76.4307 174.025 75.2921C174.025 74.1835 174.294 73.1648 174.834 72.2359C175.403 71.2771 176.152 70.5281 177.081 69.9887C178.04 69.4494 179.089 69.1797 180.227 69.1797C181.366 69.1797 182.414 69.4494 183.373 69.9887C184.332 70.5281 185.081 71.2771 185.62 72.2359C186.19 73.1648 186.474 74.1835 186.474 75.2921C186.474 77.0299 185.875 78.4831 184.677 79.6517C183.478 80.8202 181.995 81.4045 180.227 81.4045ZM180.182 78.3034C181.021 78.3034 181.695 78.0037 182.205 77.4045C182.744 76.8052 183.014 76.1011 183.014 75.2921C183.014 74.4831 182.744 73.779 182.205 73.1797C181.695 72.5505 181.021 72.2359 180.182 72.2359C179.373 72.2359 178.699 72.5505 178.16 73.1797C177.65 73.779 177.396 74.4831 177.396 75.2921C177.396 76.1011 177.65 76.8052 178.16 77.4045C178.699 78.0037 179.373 78.3034 180.182 78.3034Z" fill="#552E2E"/>
</g>
<defs>
<filter id="filter0_d" x="0" y="0" width="287" height="176.352" filterUnits="userSpaceOnUse" color-interpolation-filters="sRGB">
<feFlood flood-opacity="0" result="BackgroundImageFix"/>
<feColorMatrix in="SourceAlpha" type="matrix" values="0 0 0 0 0 0 0 0 0 0 0 0 0 0 0 0 0 0 127 0" result="hardAlpha"/>
<feOffset/>
<feGaussianBlur stdDeviation="5"/>
<feComposite in2="hardAlpha" operator="out"/>
<feColorMatrix type="matrix" values="0 0 0 0 1 0 0 0 0 0.513726 0 0 0 0 0.513726 0 0 0 1 0"/>
<feBlend mode="normal" in2="BackgroundImageFix" result="effect1_dropShadow"/>
<feBlend mode="normal" in="SourceGraphic" in2="effect1_dropShadow" result="shape"/>
</filter>
</defs>
</svg>
