<svg width="349" height="285" viewBox="0 0 349 285" fill="none" xmlns="http://www.w3.org/2000/svg">
<g clip-path="url(#clip0)">
<path d="M210.576 263.702C215.628 267.094 221.385 284.237 221.385 284.237C221.385 284.237 203.365 285.413 198.314 282.024C197.112 281.218 196.08 280.182 195.278 278.977C194.476 277.771 193.919 276.419 193.639 274.998C193.358 273.577 193.36 272.115 193.644 270.694C193.928 269.274 194.489 267.923 195.294 266.72C196.1 265.517 197.134 264.484 198.338 263.681C199.542 262.878 200.892 262.321 202.311 262.041C203.73 261.76 205.19 261.763 206.608 262.048C208.026 262.333 209.374 262.895 210.576 263.702V263.702Z" fill="#F1F1F1"/>
<path d="M221.589 284.108L221.307 284.333C211.009 271.395 195.47 266.926 195.314 266.882L195.412 266.534C195.568 266.578 211.217 271.075 221.589 284.108Z" fill="white"/>
<path d="M237.596 256.863C237.274 265.288 221.284 284.526 221.284 284.526C221.284 284.526 206.818 264.114 207.139 255.692C207.294 251.647 209.047 247.829 212.013 245.079C214.978 242.328 218.913 240.87 222.952 241.026C226.991 241.181 230.803 242.937 233.549 245.907C236.295 248.877 237.751 252.818 237.596 256.863Z" fill="#F1F1F1"/>
<path d="M221.584 284.675L221.114 284.505C228.861 262.96 222.839 241.377 222.777 241.161L223.257 241.023C223.319 241.24 229.388 262.973 221.584 284.675Z" fill="white"/>
<path d="M180.18 208.928H43.1348C40.6933 208.925 38.3525 207.953 36.6261 206.224C34.8997 204.494 33.9285 202.15 33.9258 199.705V42.8462C33.9285 40.4009 34.8997 38.0565 36.6261 36.3273C38.3525 34.5982 40.6933 33.6256 43.1348 33.6228H180.18C182.622 33.6256 184.962 34.5982 186.689 36.3273C188.415 38.0564 189.386 40.4008 189.389 42.8462V199.705C189.387 202.15 188.415 204.494 186.689 206.224C184.962 207.953 182.622 208.925 180.18 208.928Z" fill="#E6E6E6"/>
<path d="M173.776 201.241H49.538C47.3702 201.238 45.2918 200.375 43.7589 198.84C42.226 197.304 41.3638 195.223 41.3613 193.052V49.4994C41.3638 47.3282 42.226 45.2467 43.7589 43.7114C45.2918 42.1761 47.3702 41.3125 49.538 41.3101H173.776C175.944 41.3125 178.022 42.1761 179.555 43.7114C181.088 45.2467 181.95 47.3282 181.952 49.4994V193.052C181.95 195.223 181.088 197.304 179.555 198.84C178.022 200.375 175.944 201.238 173.776 201.241V201.241Z" fill="white"/>
<path d="M168.835 61.7414H106.16C105.892 61.7417 105.625 61.6891 105.377 61.5864C105.129 61.4837 104.903 61.3329 104.713 61.1428C104.523 60.9526 104.372 60.7268 104.269 60.4783C104.166 60.2297 104.113 59.9632 104.113 59.6942C104.113 59.4251 104.166 59.1586 104.269 58.9101C104.372 58.6615 104.523 58.4357 104.713 58.2456C104.903 58.0554 105.129 57.9047 105.377 57.802C105.625 57.6993 105.892 57.6466 106.16 57.647H168.835C169.103 57.6466 169.369 57.6993 169.618 57.802C169.866 57.9047 170.092 58.0554 170.282 58.2456C170.472 58.4357 170.623 58.6615 170.726 58.9101C170.828 59.1586 170.881 59.4251 170.881 59.6942C170.881 59.9632 170.828 60.2297 170.726 60.4783C170.623 60.7268 170.472 60.9526 170.282 61.1428C170.092 61.3329 169.866 61.4837 169.618 61.5864C169.369 61.6891 169.103 61.7417 168.835 61.7414Z" fill="#E4E4E4"/>
<path d="M168.834 69.8309H106.159C105.617 69.8309 105.097 69.6152 104.714 69.2313C104.331 68.8473 104.115 68.3266 104.115 67.7836C104.115 67.2406 104.331 66.7199 104.714 66.336C105.097 65.952 105.617 65.7363 106.159 65.7363H168.834C169.376 65.7363 169.896 65.952 170.279 66.336C170.662 66.7199 170.878 67.2406 170.878 67.7836C170.878 68.3266 170.662 68.8473 170.279 69.2313C169.896 69.6152 169.376 69.8309 168.834 69.8309Z" fill="#E4E4E4"/>
<path d="M133.327 77.9205H106.159C105.617 77.9205 105.097 77.7048 104.714 77.3209C104.331 76.9369 104.115 76.4162 104.115 75.8732C104.115 75.3302 104.331 74.8095 104.714 74.4256C105.097 74.0416 105.617 73.8259 106.159 73.8259H133.327C133.869 73.8259 134.389 74.0416 134.773 74.4256C135.156 74.8095 135.371 75.3302 135.371 75.8732C135.371 76.4162 135.156 76.9369 134.773 77.3209C134.389 77.7048 133.869 77.9205 133.327 77.9205Z" fill="#E4E4E4"/>
<path d="M161.276 110.593H62.3331C62.0644 110.593 61.7983 110.54 61.55 110.438C61.3016 110.335 61.076 110.184 60.8858 109.994C60.6957 109.804 60.5449 109.578 60.442 109.33C60.3391 109.081 60.2861 108.815 60.2861 108.545C60.2861 108.276 60.3391 108.01 60.442 107.761C60.5449 107.513 60.6957 107.287 60.8858 107.097C61.076 106.907 61.3016 106.756 61.55 106.653C61.7983 106.551 62.0644 106.498 62.3331 106.498H161.276C161.545 106.498 161.811 106.551 162.059 106.653C162.308 106.756 162.533 106.907 162.724 107.097C162.914 107.287 163.064 107.513 163.167 107.761C163.27 108.01 163.323 108.276 163.323 108.545C163.323 108.815 163.27 109.081 163.167 109.33C163.064 109.578 162.914 109.804 162.724 109.994C162.533 110.184 162.308 110.335 162.059 110.438C161.811 110.54 161.545 110.593 161.276 110.593Z" fill="#E4E4E4"/>
<path d="M161.276 118.682H62.3332C61.791 118.682 61.2711 118.466 60.8878 118.082C60.5044 117.698 60.2891 117.178 60.2891 116.635C60.2891 116.092 60.5044 115.571 60.8878 115.187C61.2711 114.803 61.791 114.587 62.3332 114.587H161.276C161.819 114.587 162.338 114.803 162.722 115.187C163.105 115.571 163.321 116.092 163.321 116.635C163.321 117.178 163.105 117.698 162.722 118.082C162.338 118.466 161.819 118.682 161.276 118.682Z" fill="#E4E4E4"/>
<path d="M161.276 137.045H62.3331C61.791 137.045 61.2711 136.829 60.8877 136.445C60.5044 136.061 60.2891 135.541 60.2891 134.998C60.2891 134.455 60.5044 133.934 60.8877 133.55C61.2711 133.166 61.791 132.95 62.3331 132.95H161.276C161.818 132.95 162.338 133.166 162.722 133.55C163.105 133.934 163.32 134.455 163.32 134.998C163.32 135.541 163.105 136.061 162.722 136.445C162.338 136.829 161.818 137.045 161.276 137.045Z" fill="#E4E4E4"/>
<path d="M161.276 145.134H62.3332C61.791 145.134 61.2711 144.919 60.8878 144.535C60.5044 144.151 60.2891 143.63 60.2891 143.087C60.2891 142.544 60.5044 142.023 60.8878 141.639C61.2711 141.255 61.791 141.04 62.3332 141.04H161.276C161.819 141.04 162.338 141.255 162.722 141.639C163.105 142.023 163.321 142.544 163.321 143.087C163.321 143.63 163.105 144.151 162.722 144.535C162.338 144.919 161.819 145.134 161.276 145.134Z" fill="#E4E4E4"/>
<path d="M161.276 163.497H62.3331C61.791 163.497 61.2711 163.281 60.8877 162.897C60.5044 162.513 60.2891 161.993 60.2891 161.45C60.2891 160.907 60.5044 160.386 60.8877 160.002C61.2711 159.618 61.791 159.403 62.3331 159.403H161.276C161.818 159.403 162.338 159.618 162.722 160.002C163.105 160.386 163.32 160.907 163.32 161.45C163.32 161.993 163.105 162.513 162.722 162.897C162.338 163.281 161.818 163.497 161.276 163.497Z" fill="#E4E4E4"/>
<path d="M161.276 171.587H62.3332C61.791 171.587 61.2711 171.371 60.8878 170.987C60.5044 170.603 60.2891 170.082 60.2891 169.539C60.2891 168.996 60.5044 168.476 60.8878 168.092C61.2711 167.708 61.791 167.492 62.3332 167.492H161.276C161.819 167.492 162.338 167.708 162.722 168.092C163.105 168.476 163.321 168.996 163.321 169.539C163.321 170.082 163.105 170.603 162.722 170.987C162.338 171.371 161.819 171.587 161.276 171.587Z" fill="#E4E4E4"/>
<path d="M161.259 193.994H134.091C133.549 193.994 133.029 193.778 132.646 193.394C132.262 193.01 132.047 192.49 132.047 191.947C132.047 191.404 132.262 190.883 132.646 190.499C133.029 190.115 133.549 189.899 134.091 189.899H161.259C161.801 189.899 162.321 190.115 162.704 190.499C163.088 190.883 163.303 191.404 163.303 191.947C163.303 192.49 163.088 193.01 162.704 193.394C162.321 193.778 161.801 193.994 161.259 193.994Z" fill="#102DAC"/>
<path d="M88.8106 68.0235C88.8162 72.42 87.3301 76.688 84.5959 80.1277C83.7116 81.2472 82.7048 82.264 81.5943 83.159C78.5639 85.6211 74.8613 87.1085 70.9721 87.4261C70.4426 87.472 69.9089 87.4929 69.3711 87.4929C68.3054 87.4932 67.2415 87.4052 66.1903 87.2299C65.8195 87.1715 65.4567 87.1004 65.094 87.017C64.4626 86.8762 63.8392 86.702 63.2263 86.495C61.2387 85.8325 59.3718 84.8511 57.6983 83.589C57.2523 83.255 56.823 82.9001 56.4062 82.5243C55.8963 82.0714 55.4132 81.589 54.9595 81.0797C54.8386 80.9461 54.7177 80.8083 54.601 80.6705C52.5669 78.286 51.1382 75.4446 50.4365 72.388C49.7349 69.3315 49.7811 66.1504 50.5712 63.1156C51.3613 60.0808 52.8719 57.2821 54.9744 54.9579C57.077 52.6337 59.7091 50.8528 62.6468 49.7668C65.5845 48.6807 68.7407 48.3217 71.8467 48.7204C74.9527 49.119 77.9166 50.2635 80.4859 52.0563C83.0553 53.8492 85.154 56.2373 86.6034 59.0174C88.0528 61.7975 88.81 64.8872 88.8106 68.0235L88.8106 68.0235Z" fill="#E4E4E4"/>
<path d="M68.6937 74.6681C73.0934 74.6681 76.66 71.0959 76.66 66.6895C76.66 62.2831 73.0934 58.7109 68.6937 58.7109C64.2941 58.7109 60.7275 62.2831 60.7275 66.6895C60.7275 71.0959 64.2941 74.6681 68.6937 74.6681Z" fill="#9E616A"/>
<path d="M77.563 62.8002C77.5991 62.0872 77.3982 61.3824 76.9918 60.796L76.7041 60.3868C75.666 58.3827 73.9527 56.579 72.6979 55.2596C71.7557 54.27 70.8136 53.794 69.9088 53.8399C69.2504 53.887 68.6374 54.1933 68.2038 54.6917C67.0124 54.6188 65.8257 54.8956 64.789 55.4882C63.7523 56.0808 62.9108 56.9633 62.3674 58.0278C58.553 60.0444 59.6911 65.9984 59.7035 66.0611L60.625 67.6101L60.7292 67.4139C60.7292 67.4097 60.7416 67.393 60.7583 67.3596C60.9377 67.0381 61.9131 65.2511 62.5718 64.1196C62.8122 63.7336 63.132 63.4034 63.5098 63.1509C64.1267 62.7287 64.8358 62.4609 65.5775 62.3701L67.6035 62.1071L66.8365 63.2594H72.356L74.4778 63.0089C74.6906 63.8816 76.3748 67.2677 76.5789 67.6769L76.5956 67.7103L76.7082 67.94L77.3378 66.2072C77.7054 65.1101 77.7829 63.9363 77.563 62.8002Z" fill="#2F2E41"/>
<path d="M57.7566 83.6307C58.0985 83.1798 59.8702 81.0754 63.9473 79.9606L66.1068 77.5515L74.7655 76.1694L79.172 78.6078L84.5956 80.1276C83.7113 81.2472 82.7045 82.264 81.5941 83.1589C78.5636 85.621 74.861 87.1084 70.9718 87.4261C70.4424 87.472 69.9088 87.4929 69.371 87.4929C68.3053 87.4931 67.2414 87.4051 66.1902 87.2298C65.8191 87.1714 65.4565 87.1004 65.0938 87.0169C64.4624 86.8762 63.839 86.702 63.2261 86.495C61.261 85.8411 59.4141 84.8739 57.7566 83.6307C57.7358 83.6182 57.7191 83.6015 57.6982 83.589L57.7566 83.6307Z" fill="#102DAC"/>
<path d="M222.078 9.76548H1.237C0.909039 9.76513 0.594611 9.63448 0.362706 9.40222C0.130801 9.16995 0.000357524 8.85504 0 8.52656V1.23892C0.000357524 0.910445 0.130801 0.59553 0.362706 0.363266C0.594611 0.131001 0.909039 0.000358079 1.237 0H222.078C222.406 0.000358079 222.72 0.131001 222.952 0.363266C223.184 0.59553 223.314 0.910445 223.315 1.23892V8.52656C223.314 8.85504 223.184 9.16995 222.952 9.40222C222.72 9.63448 222.406 9.76513 222.078 9.76548Z" fill="#102DAC"/>
<path d="M7.17908 6.28622C8.14902 6.28622 8.93531 5.49871 8.93531 4.52726C8.93531 3.55582 8.14902 2.76831 7.17908 2.76831C6.20914 2.76831 5.42285 3.55582 5.42285 4.52726C5.42285 5.49871 6.20914 6.28622 7.17908 6.28622Z" fill="white"/>
<path d="M13.8451 6.28622C14.815 6.28622 15.6013 5.49871 15.6013 4.52726C15.6013 3.55582 14.815 2.76831 13.8451 2.76831C12.8752 2.76831 12.0889 3.55582 12.0889 4.52726C12.0889 5.49871 12.8752 6.28622 13.8451 6.28622Z" fill="white"/>
<path d="M20.5111 6.28622C21.481 6.28622 22.2673 5.49871 22.2673 4.52726C22.2673 3.55582 21.481 2.76831 20.5111 2.76831C19.5412 2.76831 18.7549 3.55582 18.7549 4.52726C18.7549 5.49871 19.5412 6.28622 20.5111 6.28622Z" fill="white"/>
<path d="M215.547 3.31674H207.87C207.72 3.31545 207.577 3.25488 207.471 3.14822C207.366 3.04156 207.307 2.89745 207.307 2.74725C207.307 2.59705 207.366 2.45293 207.471 2.34627C207.577 2.23961 207.72 2.17904 207.87 2.17776H215.547C215.622 2.17711 215.696 2.19137 215.766 2.2197C215.835 2.24803 215.899 2.28988 215.952 2.34282C216.005 2.39577 216.047 2.45876 216.076 2.52818C216.105 2.59759 216.12 2.67205 216.12 2.74725C216.12 2.82245 216.105 2.8969 216.076 2.96631C216.047 3.03573 216.005 3.09873 215.952 3.15167C215.899 3.20462 215.835 3.24647 215.766 3.2748C215.696 3.30313 215.622 3.31738 215.547 3.31674Z" fill="white"/>
<path d="M215.547 5.45223H207.87C207.72 5.45223 207.575 5.39224 207.468 5.28544C207.362 5.17863 207.302 5.03378 207.302 4.88274C207.302 4.7317 207.362 4.58685 207.468 4.48005C207.575 4.37325 207.72 4.31325 207.87 4.31325H215.547C215.622 4.31261 215.696 4.32686 215.766 4.35519C215.835 4.38352 215.898 4.42537 215.952 4.47832C216.005 4.53126 216.047 4.59426 216.076 4.66368C216.105 4.73309 216.12 4.80754 216.12 4.88274C216.12 4.95794 216.105 5.0324 216.076 5.10181C216.047 5.17123 216.005 5.23423 215.952 5.28717C215.898 5.34012 215.835 5.38196 215.766 5.41029C215.696 5.43863 215.622 5.45288 215.547 5.45223Z" fill="white"/>
<path d="M215.547 7.58772H207.871C207.721 7.5865 207.577 7.52596 207.472 7.41929C207.366 7.31262 207.307 7.16847 207.307 7.01822C207.307 6.86798 207.366 6.72383 207.472 6.61716C207.577 6.51049 207.721 6.44995 207.871 6.44873H215.547C215.697 6.44995 215.84 6.51049 215.946 6.61716C216.052 6.72383 216.111 6.86798 216.111 7.01822C216.111 7.16847 216.052 7.31262 215.946 7.41929C215.84 7.52596 215.697 7.5865 215.547 7.58772Z" fill="white"/>
<path d="M276.175 195.977C275.822 195.592 275.557 195.135 275.4 194.636C275.243 194.137 275.196 193.61 275.264 193.092C275.332 192.574 275.512 192.076 275.793 191.635C276.074 191.194 276.447 190.82 276.888 190.54L273.961 178.172L280.155 180.438L281.985 191.835C282.407 192.608 282.531 193.508 282.334 194.366C282.137 195.224 281.633 195.98 280.917 196.491C280.201 197.001 279.323 197.231 278.449 197.136C277.575 197.042 276.766 196.629 276.175 195.977Z" fill="#9E616A"/>
<path d="M261.28 144.15L263.766 150.552C263.766 150.552 262.701 156.955 264.476 158.377C266.252 159.8 265.542 159.8 265.542 160.867C265.603 161.633 265.824 162.377 266.191 163.051C266.559 163.725 267.063 164.314 267.673 164.78C269.093 165.847 275.486 187.544 275.486 187.544H281.878C281.671 185.89 281.671 184.217 281.878 182.564C282.233 180.074 280.813 173.672 280.102 172.605C279.392 171.538 280.102 170.115 280.102 167.981C280.102 165.847 278.682 164.78 278.682 161.223C278.682 157.666 274.42 129.923 274.775 126.722C275.13 123.521 271.224 120.675 271.224 120.675H267.673L261.28 144.15Z" fill="#E4E4E4"/>
<path d="M277.628 279.421H272.904L270.656 261.17L277.629 261.171L277.628 279.421Z" fill="#9E616A"/>
<path d="M278.833 284.008L263.6 284.007V283.814C263.6 282.239 264.224 280.729 265.336 279.615C266.448 278.502 267.956 277.876 269.529 277.876H269.529L272.312 275.762L277.504 277.876L278.833 277.876L278.833 284.008Z" fill="#2F2E41"/>
<path d="M234.41 279.286L229.974 277.66L234.123 259.747L240.671 262.146L234.41 279.286Z" fill="#9E616A"/>
<path d="M233.967 284.008L219.661 278.766L219.727 278.585C220.268 277.106 221.372 275.902 222.799 275.239C224.225 274.576 225.856 274.507 227.333 275.048L227.333 275.048L230.671 274.02L234.822 277.792L236.071 278.25L233.967 284.008Z" fill="#2F2E41"/>
<path d="M267.219 194.078C267.219 194.078 264.023 209.728 269.35 208.305C274.677 206.882 272.546 193.366 272.546 193.366L267.219 194.078Z" fill="#A0616A"/>
<path d="M243.781 181.095C243.781 181.095 239.519 186.786 239.519 189.987C239.519 193.188 238.099 221.643 238.099 221.643C238.099 221.643 227.316 264.016 229.447 266.15C231.578 268.284 239.035 270.418 240.101 269.351C241.166 268.284 250.528 224.489 250.528 224.489L259.407 200.658L267.575 234.803L268.285 271.083C268.285 271.083 277.163 273.217 278.939 271.794C280.715 270.372 281.07 235.87 278.939 223.777C276.808 211.684 279.294 183.941 279.294 183.941L243.781 181.095Z" fill="#2F2E41"/>
<path d="M258.023 105.157C263.907 105.157 268.677 100.379 268.677 94.4862C268.677 88.593 263.907 83.8157 258.023 83.8157C252.139 83.8157 247.369 88.593 247.369 94.4862C247.369 100.379 252.139 105.157 258.023 105.157Z" fill="#9E616A"/>
<path d="M244.491 120.629C244.491 120.629 247.559 116.051 253.596 110.005C256.792 108.938 262.33 109.559 264.25 110.005C273.128 121.742 273.687 120.962 275.998 127.52C276.597 129.221 276.897 130.855 276.631 132.189C275.565 137.524 278.939 180.74 279.294 182.162C279.649 183.585 282.135 185.363 279.649 185.363C277.163 185.363 239.519 183.941 240.23 182.874C240.94 181.807 244.491 120.629 244.491 120.629Z" fill="#E4E4E4"/>
<path opacity="0.1" d="M242.865 182.404L253.547 158.865L248.206 183.899L242.865 182.404Z" fill="black"/>
<path d="M254.8 104.372C255.797 103.628 256.716 102.784 257.541 101.852C258.369 100.912 258.887 99.7393 259.025 98.4933C259.086 97.872 258.989 97.2455 258.742 96.6721C258.496 96.0987 258.109 95.597 257.617 95.2138C256.602 94.4958 255.055 94.5376 254.213 95.4523C254.619 94.1349 254.991 92.581 254.167 91.4763C253.417 90.4709 252.018 90.3 250.809 89.9685C248.478 89.3186 246.473 87.8222 245.184 85.7713L247.236 86.1967L247.007 84.7313L248.708 85.3236L248.723 83.2825L250.478 84.2662C252.627 82.2929 255.46 81.236 258.374 81.3198C259.844 81.3443 261.284 81.7403 262.561 82.4709C263.84 83.212 264.808 84.3909 265.288 85.7907C266.192 84.8514 267.803 84.924 268.879 85.6582C269.956 86.3923 270.588 87.6204 271.022 88.8501C271.882 91.2083 272.082 93.7571 271.601 96.2209C271.106 98.6905 269.777 100.914 267.838 102.519C266.057 103.88 263.937 104.725 261.71 104.96C259.491 105.191 257.251 105.095 255.06 104.676" fill="#2F2E41"/>
<path d="M239.539 195.931C239.892 195.546 240.157 195.088 240.314 194.59C240.472 194.091 240.518 193.564 240.45 193.046C240.382 192.527 240.202 192.03 239.921 191.589C239.641 191.148 239.267 190.774 238.827 190.493L241.753 178.125L235.559 180.392L233.73 191.789C233.308 192.561 233.183 193.462 233.38 194.32C233.577 195.178 234.081 195.934 234.797 196.444C235.513 196.955 236.392 197.185 237.265 197.09C238.139 196.995 238.948 196.583 239.539 195.931V195.931Z" fill="#9E616A"/>
<path d="M248.043 120.629H244.491C244.491 120.629 240.585 123.474 240.94 126.676C241.295 129.877 237.033 157.62 237.033 161.177C237.033 164.734 235.613 165.801 235.613 167.935C235.613 170.069 236.323 171.492 235.613 172.559C234.903 173.626 233.482 180.028 233.837 182.518C234.044 184.171 234.044 185.844 233.837 187.497H240.23C240.23 187.497 246.622 165.801 248.043 164.734C248.652 164.268 249.157 163.679 249.524 163.005C249.891 162.33 250.112 161.587 250.173 160.821C250.173 159.754 249.463 159.754 251.239 158.331C253.014 156.909 251.949 150.506 251.949 150.506L254.435 144.104L248.043 120.629Z" fill="#E4E4E4"/>
<path d="M348.504 285H153.696C153.631 285 153.566 284.987 153.506 284.962C153.445 284.938 153.39 284.901 153.344 284.855C153.298 284.809 153.261 284.754 153.236 284.693C153.211 284.633 153.198 284.568 153.198 284.503C153.198 284.437 153.211 284.373 153.236 284.312C153.261 284.252 153.298 284.197 153.344 284.151C153.39 284.105 153.445 284.068 153.506 284.043C153.566 284.018 153.631 284.005 153.696 284.006H348.504C348.569 284.005 348.634 284.018 348.694 284.043C348.754 284.068 348.809 284.105 348.855 284.151C348.902 284.197 348.938 284.252 348.963 284.312C348.988 284.373 349.001 284.437 349.001 284.503C349.001 284.568 348.988 284.633 348.963 284.693C348.938 284.754 348.902 284.809 348.855 284.855C348.809 284.901 348.754 284.938 348.694 284.962C348.634 284.987 348.569 285 348.504 285Z" fill="#CACACA"/>
</g>
<defs>
<clipPath id="clip0">
<rect width="349" height="285" fill="white"/>
</clipPath>
</defs>
</svg>
