<svg width="287" height="176" viewBox="0 0 287 176" fill="none" xmlns="http://www.w3.org/2000/svg">
<g filter="url(#filter0_d)">
<rect x="10" y="10" width="267" height="156" rx="4" fill="#FFDC83"/>
<path fill-rule="evenodd" clip-rule="evenodd" d="M277 39.6243C276.39 39.0572 275.706 38.5648 274.96 38.1625C272.648 36.9152 269.935 36.6374 267.418 37.3904L257.39 40.3903C256.181 38.735 254.49 37.4952 252.547 36.8417C250.605 36.1882 248.507 36.1532 246.544 36.7416L227.564 42.4198C225.6 43.0061 223.867 44.187 222.602 45.7998C221.338 47.4127 220.605 49.3779 220.504 51.4248L210.476 54.4248C207.959 55.1777 205.844 56.8997 204.597 59.2119C203.349 61.5241 203.072 64.2372 203.825 66.7542L226.537 142.677C227.29 145.194 229.012 147.309 231.324 148.556C233.636 149.803 236.349 150.081 238.866 149.328L277 137.92V131.027L236.974 143.001C236.135 143.252 235.23 143.16 234.46 142.744C233.689 142.328 233.115 141.623 232.864 140.784L210.151 64.8614C209.9 64.0224 209.993 63.1181 210.409 62.3474C210.825 61.5766 211.53 61.0026 212.368 60.7516L222.397 57.7517C223.605 59.407 225.297 60.6469 227.239 61.3003C229.182 61.9538 231.279 61.9888 233.242 61.4004L252.223 55.7223C254.186 55.136 255.92 53.955 257.184 52.3422C258.449 50.7294 259.182 48.7641 259.282 46.7172L269.31 43.7173C270.149 43.4663 271.054 43.5589 271.825 43.9747C272.595 44.3904 273.169 45.0954 273.42 45.9344L277 57.9007V39.6243ZM277 103.455L264.201 107.284C263.362 107.535 262.657 108.109 262.241 108.879C261.825 109.65 261.733 110.554 261.984 111.393C262.235 112.232 262.809 112.937 263.579 113.353C264.35 113.769 265.254 113.862 266.093 113.611L277 110.348V103.455ZM244.305 75.3237C244.556 76.1638 244.463 77.0692 244.047 77.841L244.039 77.8365L236.279 92.2208C235.875 92.9676 235.2 93.5303 234.393 93.7924C233.586 94.0544 232.709 93.9955 231.944 93.628L225.902 90.7136C225.143 90.3162 224.568 89.6391 224.299 88.8255C224.029 88.012 224.087 87.1256 224.459 86.3538C224.832 85.5819 225.489 84.985 226.294 84.6893C227.098 84.3935 227.986 84.422 228.769 84.7687L231.966 86.3076L238.227 74.7016C238.644 73.9298 239.349 73.3551 240.19 73.1038C241.03 72.8525 241.935 72.9452 242.707 73.3615C243.478 73.7778 244.053 74.4837 244.305 75.3237ZM253.165 105.817C252.891 105.481 252.553 105.202 252.17 104.996C251.788 104.789 251.369 104.66 250.937 104.615C250.505 104.571 250.069 104.612 249.653 104.737C249.236 104.861 248.849 105.066 248.512 105.341C248.176 105.615 247.897 105.953 247.691 106.336L241.432 117.948L238.233 116.403C237.449 116.056 236.561 116.028 235.757 116.324C234.953 116.619 234.295 117.216 233.923 117.988C233.551 118.76 233.493 119.646 233.762 120.46C234.031 121.274 234.606 121.951 235.365 122.348L241.407 125.262C242.172 125.633 243.051 125.694 243.86 125.432C244.669 125.171 245.346 124.608 245.751 123.86L253.51 109.475C253.717 109.093 253.846 108.674 253.891 108.242C253.935 107.81 253.894 107.374 253.77 106.958C253.645 106.542 253.44 106.154 253.165 105.817ZM252.777 77.245C252.362 78.0157 252.269 78.9201 252.52 79.7591C252.771 80.5981 253.345 81.303 254.116 81.7188C254.887 82.1346 255.791 82.2271 256.63 81.9762L272.447 77.2444C273.286 76.9934 273.991 76.4194 274.407 75.6487C274.823 74.8779 274.915 73.9736 274.664 73.1346C274.413 72.2956 273.839 71.5907 273.068 71.1749C272.298 70.7591 271.393 70.6665 270.554 70.9175L254.737 75.6493C253.898 75.9003 253.193 76.4743 252.777 77.245ZM227.497 50.3424C227.081 51.1131 226.988 52.0174 227.239 52.8564C227.49 53.6954 228.064 54.4004 228.835 54.8161C229.606 55.2319 230.51 55.3245 231.349 55.0735L250.33 49.3954C251.169 49.1444 251.874 48.5704 252.29 47.7997C252.705 47.0289 252.798 46.1246 252.547 45.2856C252.296 44.4466 251.722 43.7417 250.951 43.3259C250.18 42.9101 249.276 42.8175 248.437 43.0685L229.456 48.7466C228.617 48.9976 227.913 49.5716 227.497 50.3424ZM123.965 105.263C123.88 105.78 123.594 106.243 123.168 106.549L123.165 106.544L115.234 112.249C114.822 112.545 114.312 112.671 113.809 112.601C113.307 112.531 112.851 112.27 112.535 111.873L110.049 108.727C109.745 108.315 109.613 107.801 109.681 107.293C109.748 106.785 110.011 106.324 110.413 106.006C110.815 105.688 111.324 105.539 111.834 105.591C112.344 105.642 112.814 105.889 113.144 106.28L114.461 107.943L120.86 103.34C121.286 103.034 121.815 102.909 122.333 102.994C122.85 103.078 123.313 103.365 123.619 103.79C123.925 104.216 124.049 104.745 123.965 105.263ZM120.759 123.972C120.699 123.72 120.59 123.481 120.439 123.271C120.287 123.06 120.096 122.881 119.875 122.744C119.654 122.607 119.409 122.515 119.153 122.473C118.897 122.431 118.635 122.441 118.382 122.5C118.129 122.56 117.891 122.669 117.68 122.82L111.28 127.427L109.964 125.761C109.634 125.37 109.164 125.122 108.654 125.071C108.144 125.02 107.635 125.169 107.233 125.486C106.831 125.804 106.568 126.266 106.5 126.773C106.433 127.281 106.565 127.795 106.869 128.207L109.355 131.353C109.67 131.752 110.127 132.015 110.63 132.086C111.133 132.157 111.644 132.031 112.057 131.734L119.988 126.029C120.199 125.878 120.378 125.686 120.515 125.466C120.652 125.245 120.744 125 120.786 124.743C120.828 124.487 120.818 124.225 120.759 123.972ZM124.838 127.991C125.263 127.685 125.792 127.56 126.308 127.645L136.049 129.235C136.565 129.319 137.027 129.605 137.333 130.03C137.639 130.455 137.763 130.984 137.679 131.501C137.594 132.018 137.308 132.48 136.883 132.785C136.458 133.091 135.929 133.215 135.413 133.131L125.672 131.541C125.156 131.457 124.694 131.17 124.388 130.745C124.082 130.32 123.958 129.791 124.042 129.275C124.127 128.758 124.413 128.296 124.838 127.991ZM128.018 108.51C127.593 108.816 127.307 109.278 127.222 109.794C127.138 110.311 127.262 110.84 127.568 111.265C127.874 111.69 128.336 111.976 128.852 112.061L138.593 113.651C139.109 113.735 139.638 113.611 140.063 113.305C140.488 112.999 140.774 112.537 140.859 112.021C140.943 111.504 140.819 110.975 140.513 110.55C140.207 110.125 139.745 109.839 139.229 109.754L129.488 108.164C128.972 108.08 128.443 108.204 128.018 108.51ZM120.013 83.7184C121.115 83.1818 122.355 83 123.564 83.198L135.252 85.106C136.462 85.3027 137.58 85.8697 138.453 86.7286C139.327 87.5876 139.912 88.6964 140.129 89.902L146.305 90.9101C147.855 91.1631 149.241 92.0215 150.158 93.2964C151.075 94.5713 151.448 96.1583 151.195 97.7082L143.563 144.461C143.31 146.011 142.451 147.397 141.176 148.314C139.901 149.231 138.314 149.604 136.765 149.351L101.7 143.627C100.15 143.374 98.764 142.516 97.8469 141.241C96.9298 139.966 96.5568 138.379 96.8098 136.829L104.442 90.0761C104.695 88.5262 105.553 87.1402 106.828 86.2231C108.103 85.3061 109.69 84.933 111.24 85.186L117.415 86.1941C118.004 85.12 118.912 84.255 120.013 83.7184ZM121.458 87.4398C121.033 87.7454 120.747 88.2074 120.662 88.7241C120.578 89.2407 120.702 89.7697 121.008 90.1947C121.314 90.6197 121.776 90.9058 122.292 90.9901L133.98 92.8982C134.497 92.9825 135.026 92.8581 135.451 92.5525C135.876 92.2468 136.162 91.7848 136.247 91.2681C136.331 90.7515 136.207 90.2225 135.901 89.7975C135.595 89.3726 135.133 89.0864 134.616 89.0021L122.928 87.0941C122.412 87.0097 121.883 87.1341 121.458 87.4398ZM116.779 90.0902L110.604 89.0821C110.087 88.9978 109.558 89.1221 109.133 89.4278C108.708 89.7335 108.422 90.1955 108.338 90.7121L100.706 137.465C100.622 137.982 100.746 138.511 101.052 138.936C101.357 139.361 101.819 139.647 102.336 139.731L137.401 145.455C137.917 145.539 138.446 145.415 138.871 145.109C139.296 144.804 139.582 144.342 139.667 143.825L147.299 97.0722C147.383 96.5556 147.259 96.0266 146.953 95.6016C146.647 95.1767 146.185 94.8905 145.669 94.8062L139.493 93.7981C138.904 94.8722 137.997 95.7372 136.895 96.2738C135.794 96.8104 134.553 96.9922 133.344 96.7942L121.656 94.8862C120.447 94.6895 119.329 94.1225 118.455 93.2636C117.582 92.4046 116.996 91.2959 116.779 90.0902Z" fill="#F7C576"/>
<rect x="43.0783" y="39.0783" width="25.0435" height="25.0435" rx="5.6646" stroke="#E9965A" stroke-width="5.84348"/>
<rect x="43.0783" y="77.4783" width="25.0435" height="25.0435" rx="5.6646" stroke="#E9965A" stroke-width="5.84348"/>
<rect x="43.0783" y="115.878" width="25.0435" height="25.0435" rx="5.6646" stroke="#E9965A" stroke-width="5.84348"/>
<g clip-path="url(#clip0)">
<path d="M61.4848 45.431C61.7587 45.1544 62.1311 44.9976 62.5203 44.9947C62.9096 44.9919 63.2842 45.1432 63.5622 45.4157C63.8402 45.6881 63.9991 46.0596 64.004 46.4488C64.009 46.8381 63.8597 47.2135 63.5888 47.493L55.7488 57.294C55.6141 57.439 55.4516 57.5554 55.2709 57.6362C55.0902 57.717 54.8951 57.7606 54.6973 57.7643C54.4994 57.768 54.3028 57.7318 54.1192 57.6579C53.9356 57.584 53.7688 57.4738 53.6288 57.334L48.4308 52.138C48.1545 51.8616 47.9994 51.4869 47.9995 51.0961C47.9996 50.7054 48.1549 50.3307 48.4313 50.0545C48.7076 49.7783 49.0824 49.6231 49.4731 49.6232C49.8639 49.6233 50.2385 49.7786 50.5148 50.055L54.6258 54.167L61.4458 45.477C61.4582 45.4612 61.4715 45.4461 61.4858 45.432L61.4848 45.431Z" fill="#E9965A"/>
</g>
<g clip-path="url(#clip1)">
<path d="M61.4848 121.431C61.7587 121.154 62.1311 120.998 62.5203 120.995C62.9096 120.992 63.2842 121.143 63.5622 121.416C63.8402 121.688 63.9991 122.06 64.004 122.449C64.009 122.838 63.8597 123.213 63.5888 123.493L55.7488 133.294C55.6141 133.439 55.4516 133.555 55.2709 133.636C55.0902 133.717 54.8951 133.761 54.6973 133.764C54.4994 133.768 54.3028 133.732 54.1192 133.658C53.9356 133.584 53.7688 133.474 53.6288 133.334L48.4308 128.138C48.1545 127.862 47.9994 127.487 47.9995 127.096C47.9996 126.705 48.1549 126.331 48.4313 126.054C48.7076 125.778 49.0824 125.623 49.4731 125.623C49.8639 125.623 50.2385 125.779 50.5148 126.055L54.6258 130.167L61.4458 121.477C61.4582 121.461 61.4715 121.446 61.4858 121.432L61.4848 121.431Z" fill="#E9965A"/>
</g>
<rect x="82" y="40" width="118" height="9" rx="4.5" fill="#E9965A"/>
<rect x="82" y="80" width="118" height="9" rx="4.5" fill="#E9965A"/>
<rect x="82" y="116" width="118" height="9" rx="4.5" fill="#E9965A"/>
<rect x="82" y="132" width="102" height="9" rx="4.5" fill="#E9965A"/>
<rect x="82" y="56" width="59" height="9" rx="4.5" fill="#E9965A"/>
</g>
<defs>
<filter id="filter0_d" x="0" y="0" width="287" height="176" filterUnits="userSpaceOnUse" color-interpolation-filters="sRGB">
<feFlood flood-opacity="0" result="BackgroundImageFix"/>
<feColorMatrix in="SourceAlpha" type="matrix" values="0 0 0 0 0 0 0 0 0 0 0 0 0 0 0 0 0 0 127 0" result="hardAlpha"/>
<feOffset/>
<feGaussianBlur stdDeviation="5"/>
<feComposite in2="hardAlpha" operator="out"/>
<feColorMatrix type="matrix" values="0 0 0 0 1 0 0 0 0 0.787601 0 0 0 0 0.2475 0 0 0 1 0"/>
<feBlend mode="normal" in2="BackgroundImageFix" result="effect1_dropShadow"/>
<feBlend mode="normal" in="SourceGraphic" in2="effect1_dropShadow" result="shape"/>
</filter>
<clipPath id="clip0">
<rect width="16" height="16" fill="white" transform="translate(48 44)"/>
</clipPath>
<clipPath id="clip1">
<rect width="16" height="16" fill="white" transform="translate(48 120)"/>
</clipPath>
</defs>
</svg>
